<svg width="250" height="250" viewBox="0 0 250 250" fill="none" xmlns="http://www.w3.org/2000/svg">
<g clip-path="url(#clip0_1_2)">
<path d="M250 0H0V250H250V0Z" fill="#5683FF"/>
<mask id="mask0_1_2" style="mask-type:alpha" maskUnits="userSpaceOnUse" x="20" y="-3" width="209" height="209">
<path d="M124.5 206C182.214 206 229 159.214 229 101.5C229 43.7862 182.214 -3 124.5 -3C66.7862 -3 20 43.7862 20 101.5C20 159.214 66.7862 206 124.5 206Z" fill="#008000"/>
</mask>
<g mask="url(#mask0_1_2)">
<path d="M148.33 160.028C167.026 160.028 163.162 183.572 163.341 209.756H148.33V160.028Z" fill="#FDD2B2"/>
<path d="M153.014 175.104L148.33 182.962L150.674 209.756H157.217C157.375 172.602 153.014 175.104 153.014 175.104Z" fill="#F3AB98"/>
<path d="M70.7189 106.705C70.7189 76.3425 95.3215 51.7279 125.67 51.7279C156.018 51.7279 180.62 76.3425 180.62 106.705C180.628 114.886 178.807 122.965 175.291 130.351C171.775 137.737 166.652 144.243 160.299 149.393C159.171 150.31 158.008 151.182 156.809 152.008C144.416 159.879 128.76 159.879 114.626 158.62C113.254 158.414 111.886 158.154 110.529 157.855C105.105 156.66 99.8537 154.815 95.0022 152.126C93.8033 151.386 92.6407 150.588 91.5146 149.731C90.3828 148.868 89.2962 147.948 88.2598 146.973C87.2792 146.062 86.3324 145.116 85.4191 144.133C75.9547 133.972 70.7005 120.594 70.7189 106.705Z" fill="#FDD2B2"/>
<path d="M78.209 134.422C78.3532 134.669 78.4953 134.916 78.6435 135.159C78.7321 135.308 78.8249 135.452 78.9177 135.601C79.0536 135.821 79.1896 136.042 79.3297 136.258C79.4285 136.415 79.5355 136.567 79.6304 136.72C79.7663 136.926 79.9023 137.132 80.0426 137.338C80.1475 137.494 80.2484 137.651 80.3638 137.808C80.4996 138.014 80.6357 138.204 80.7757 138.401C80.8869 138.56 81.0023 138.717 81.1158 138.875C81.2291 139.034 81.3917 139.257 81.5277 139.446C81.6636 139.636 81.7645 139.762 81.8841 139.918C82.0036 140.075 82.1664 140.289 82.3106 140.475C82.4548 140.66 82.5556 140.786 82.6791 140.941C82.8028 141.095 82.9698 141.303 83.1159 141.483C83.2622 141.662 83.3694 141.79 83.4971 141.942C83.6248 142.095 83.7937 142.297 83.944 142.472C84.0944 142.647 84.2058 142.775 84.3375 142.925L84.795 143.44C84.9288 143.591 85.0648 143.737 85.2069 143.886C85.384 144.079 85.5633 144.271 85.7424 144.461L85.9917 144.725C86.2576 145.001 86.5253 145.277 86.7972 145.549L86.8507 145.605C87.1166 145.868 87.3864 146.13 87.6562 146.39L87.9816 146.699C88.1775 146.882 88.3731 147.066 88.5708 147.247L88.8099 147.466C89.0158 147.659 89.2404 147.849 89.4568 148.039C90.1295 148.625 90.8163 149.188 91.5167 149.727C92.6415 150.584 93.804 151.382 95.0042 152.121C99.8555 154.801 105.098 156.656 110.531 157.851C111.888 158.15 113.256 158.408 114.628 158.616C123.301 159.389 132.55 159.683 141.26 157.981C127.41 153.902 60.9007 129.941 102.762 56.7217C102.202 56.9794 101.65 57.2453 101.102 57.5214L100.98 57.5814C100.729 57.707 100.478 57.8368 100.229 57.9686L100.022 58.0779C99.248 58.4901 98.4816 58.9167 97.7296 59.3618L97.5442 59.4711C97.3053 59.6133 97.0685 59.7577 96.8315 59.904L96.6524 60.0152C95.9161 60.4756 95.1917 60.9517 94.479 61.4435L94.2564 61.5981C94.032 61.7547 93.8115 61.9114 93.591 62.0701L93.4551 62.1668C93.006 62.4952 92.5625 62.8279 92.1244 63.1644L91.9967 63.2634C91.7907 63.4242 91.5848 63.5891 91.3785 63.7561L91.1377 63.9498C90.9317 64.1166 90.7256 64.2836 90.5195 64.4547C90.085 64.8155 89.6566 65.1862 89.2342 65.5614L88.9993 65.7675L88.4452 66.2724L88.1775 66.5157C87.5895 67.0652 87.0148 67.6265 86.4532 68.1996L86.169 68.4901C86.0062 68.659 85.8434 68.8281 85.6826 68.9992C85.588 69.1002 85.4933 69.2051 85.4005 69.3042C85.1177 69.6064 84.8387 69.9128 84.5643 70.2234C84.4715 70.3285 84.3766 70.4294 84.284 70.5408C84.1377 70.7076 83.9935 70.8769 83.8493 71.0458L83.5381 71.4147C83.3983 71.5816 83.2582 71.7486 83.1261 71.9175C83.015 72.0536 82.9038 72.1915 82.7947 72.3297C82.5742 72.6039 82.3579 72.8779 82.1436 73.1542C82.0324 73.2984 81.9213 73.4428 81.812 73.5891C81.7029 73.7354 81.5647 73.9168 81.4433 74.0836C81.3216 74.2506 81.2228 74.3825 81.1158 74.5329C81.0086 74.6834 80.8829 74.8523 80.7695 75.013C80.5747 75.2881 80.3824 75.5662 80.1928 75.848C80.0898 75.9984 79.9868 76.1529 79.8858 76.3055C79.7849 76.4578 79.6593 76.6476 79.5481 76.8206L79.241 77.2968L78.8949 77.8552C78.8063 77.9975 78.7179 78.1396 78.6314 78.282C78.4479 78.5829 78.2709 78.8858 78.0936 79.1888L77.8424 79.634C77.731 79.8298 77.6198 80.0275 77.5107 80.2255C77.4282 80.3759 77.3458 80.5264 77.2654 80.6767C77.1337 80.9221 77.0039 81.1695 76.8741 81.4166L76.6269 81.8989C76.495 82.1629 76.3633 82.4246 76.2333 82.6904C76.1656 82.8327 76.0954 82.9769 76.0275 83.1212C75.9202 83.3458 75.8214 83.5726 75.7123 83.7992C75.6485 83.9352 75.5865 84.0713 75.5248 84.2115C75.3722 84.5509 75.2234 84.8943 75.0778 85.2419C75.0324 85.3491 74.9891 85.4584 74.9438 85.5656C74.8347 85.8273 74.7275 86.0892 74.6226 86.3527C74.5668 86.4909 74.5133 86.629 74.4597 86.7651C74.3567 87.0247 74.2539 87.2865 74.1611 87.5482C74.1178 87.6615 74.0746 87.775 74.0334 87.8882C73.9042 88.2496 73.7772 88.611 73.6522 88.9723L73.5368 89.3226C73.4461 89.5976 73.3577 89.8723 73.2712 90.1471L73.1476 90.5409C73.0507 90.8581 72.956 91.1756 72.8653 91.495C72.8448 91.5629 72.8241 91.631 72.8057 91.7012C72.6985 92.0804 72.5955 92.461 72.4966 92.843C72.4636 92.9646 72.4347 93.0882 72.4038 93.2098C72.3317 93.4961 72.2617 93.7827 72.198 94.0713L72.1114 94.432C72.0228 94.8235 71.9363 95.2152 71.8558 95.6087L71.8251 95.7675C71.7551 96.1178 71.6863 96.4681 71.619 96.8186C71.5965 96.9444 71.5758 97.0679 71.553 97.1938C71.4995 97.5008 71.4481 97.812 71.4006 98.1211C71.3841 98.2262 71.3657 98.3272 71.3511 98.4344C71.2894 98.8363 71.2338 99.2403 71.1803 99.6462L71.1494 99.9143C71.1082 100.242 71.071 100.572 71.0361 100.901C71.0238 101.025 71.0092 101.149 70.9968 101.274C70.9638 101.621 70.9331 101.969 70.9042 102.317C70.9042 102.389 70.8917 102.46 70.8877 102.523C70.8574 102.936 70.8307 103.351 70.8075 103.77C70.8075 103.88 70.8075 103.991 70.7931 104.1C70.7793 104.424 70.7667 104.748 70.7559 105.071C70.7559 105.193 70.7559 105.314 70.7559 105.436C70.7559 105.858 70.7393 106.283 70.7393 106.707C70.7393 106.707 70.7393 106.722 70.7393 106.728C70.7393 107.185 70.7393 107.639 70.7559 108.092C70.7559 108.249 70.7682 108.406 70.7724 108.562C70.7826 108.865 70.7931 109.168 70.8075 109.471C70.8075 109.654 70.83 109.836 70.8403 110.019C70.8568 110.293 70.8712 110.568 70.8917 110.844C70.9061 111.05 70.9247 111.233 70.9412 111.427C70.964 111.687 70.9847 111.946 71.0112 112.204C71.0299 112.41 71.0545 112.604 71.0752 112.804C71.104 113.053 71.1308 113.305 71.1617 113.554C71.1864 113.76 71.2152 113.966 71.242 114.162C71.275 114.405 71.308 114.65 71.345 114.894C71.376 115.1 71.4088 115.306 71.4418 115.512C71.4788 115.751 71.5181 115.992 71.5592 116.231C71.5965 116.437 71.6334 116.644 71.6725 116.849C71.7158 117.086 71.7611 117.323 71.8065 117.558C71.8518 117.793 71.8909 117.971 71.9342 118.177C71.9837 118.412 72.0331 118.644 72.0866 118.878C72.1401 119.11 72.1773 119.29 72.2268 119.482C72.2803 119.714 72.338 119.945 72.3957 120.174C72.4534 120.403 72.4966 120.576 72.548 120.774C72.6099 121.004 72.6718 121.233 72.7357 121.462C72.7892 121.668 72.8448 121.858 72.9025 122.053C72.9683 122.282 73.0362 122.509 73.1084 122.736C73.1805 122.962 73.2279 123.125 73.2898 123.321C73.3514 123.517 73.434 123.772 73.5082 123.997C73.5822 124.222 73.6357 124.383 73.7017 124.574C73.7799 124.799 73.8583 125.023 73.9385 125.248C74.0066 125.436 74.0725 125.625 74.1446 125.813L74.4 126.487C74.4721 126.67 74.5423 126.856 74.6061 127.039C74.6965 127.264 74.7896 127.49 74.8821 127.715C74.9563 127.893 75.0284 128.072 75.1045 128.249C75.2015 128.48 75.3106 128.707 75.4032 128.935C75.4795 129.104 75.5537 129.275 75.6299 129.444C75.7369 129.683 75.8502 129.918 75.9595 130.153L76.1819 130.627C76.3077 130.887 76.4375 131.142 76.5671 131.4C76.6331 131.53 76.6948 131.662 76.7629 131.792C77.1584 132.563 77.5703 133.323 77.9987 134.073C78.0587 134.17 78.1348 134.296 78.209 134.422Z" fill="#F3AB98"/>
<path d="M70.7189 106.705C70.7189 76.3425 95.3215 51.7279 125.67 51.7279C156.018 51.7279 180.62 76.3425 180.62 106.705C180.628 114.886 178.807 122.965 175.291 130.351C171.775 137.737 166.652 144.243 160.299 149.393C159.171 150.31 158.008 151.182 156.809 152.008C144.416 159.879 128.76 159.879 114.626 158.62C113.254 158.414 111.886 158.154 110.529 157.855C105.105 156.66 99.8537 154.815 95.0022 152.126C93.8033 151.386 92.6407 150.588 91.5146 149.731C90.3828 148.868 89.2962 147.948 88.2598 146.973C87.2792 146.062 86.3324 145.116 85.4191 144.133C75.9547 133.972 70.7005 120.594 70.7189 106.705Z" stroke="#592D3D" stroke-width="2.4662" stroke-miterlimit="10"/>
<path d="M102.21 160.028C83.5115 160.028 87.3782 183.572 87.1989 209.756H102.21V160.028Z" fill="#FDD2B2"/>
<path d="M98.3188 175.104L103.01 182.962L100.663 209.756H94.1266C93.9599 172.602 98.3188 175.104 98.3188 175.104Z" fill="#F3AB98"/>
<path d="M150.281 224.183H101.059C100.334 224.181 99.6382 223.894 99.1255 223.379C98.613 222.867 98.325 222.172 98.325 221.446V162.764C98.325 162.039 98.613 161.343 99.1255 160.83C99.6382 160.317 100.334 160.028 101.059 160.028H149.104C151.801 160.028 153.018 161.606 153.018 164.125V221.438C153.02 221.798 152.949 222.154 152.812 222.487C152.675 222.82 152.474 223.124 152.219 223.378C151.965 223.633 151.663 223.835 151.33 223.974C150.997 224.112 150.641 224.183 150.281 224.183Z" fill="#FDD2B2"/>
<path d="M152.254 161.656C152.049 161.403 151.875 161.126 151.737 160.831C151.242 160.444 150.654 160.194 150.031 160.108C149.725 160.06 149.415 160.037 149.104 160.038H101.059C100.335 160.038 99.6415 160.326 99.1291 160.837C98.617 161.348 98.3278 162.041 98.325 162.764C104.299 164.912 115.483 166.112 125.67 166.112C138.66 166.112 147.172 164.185 152.254 161.656Z" fill="#F3AB98"/>
<path d="M148.33 160.028C167.026 160.028 163.162 183.572 163.341 209.756H153.014" stroke="#592D3D" stroke-width="2.508" stroke-miterlimit="10" stroke-linecap="square"/>
<path d="M102.21 160.028C83.5115 160.028 87.3782 183.572 87.1989 209.756H97.5135" stroke="#592D3D" stroke-width="2.508" stroke-miterlimit="10" stroke-linecap="square"/>
<path d="M101.059 160.048L149.104 160.028" stroke="#592D3D" stroke-width="2.508" stroke-miterlimit="10"/>
<path d="M101.059 224.183H125.082C102.598 224.183 104.295 176.536 98.325 176.536V221.438C98.324 221.797 98.3938 222.154 98.5307 222.487C98.6676 222.82 98.8686 223.122 99.1226 223.378C99.3765 223.632 99.6783 223.834 100.01 223.973C100.343 224.11 100.699 224.181 101.059 224.183Z" fill="#F3AB98"/>
<path d="M97.089 181.077C97.0499 180.32 97.0665 179.564 97.0995 178.809C97.1325 178.055 97.1962 177.295 97.2765 176.542C97.3177 176.163 97.3588 175.786 97.4105 175.407C97.4619 175.027 97.5114 174.65 97.5856 174.271C97.7317 173.486 97.9802 172.724 98.325 172.004C98.6699 172.724 98.9184 173.486 99.0647 174.271C99.1387 174.65 99.1924 175.027 99.2398 175.407C99.2871 175.786 99.3324 176.163 99.3736 176.542C99.452 177.299 99.5136 178.055 99.5487 178.809C99.5839 179.564 99.6004 180.322 99.5611 181.077H97.089Z" fill="#592D3D"/>
<path d="M153.014 182.962V184.611C153.068 191.618 153.068 198.832 153.014 205.788C153.014 206.38 153.014 206.967 153.014 207.546V221.439C153.015 221.8 152.945 222.155 152.808 222.489C152.671 222.82 152.47 223.122 152.216 223.378C151.962 223.633 151.66 223.835 151.328 223.973C150.996 224.11 150.64 224.181 150.281 224.183H101.059C100.334 224.181 99.6382 223.894 99.1255 223.379C98.6131 222.867 98.325 222.172 98.325 221.446V209.451C98.325 208.933 98.325 208.406 98.325 207.874C98.2734 200.687 98.2734 193.474 98.325 186.171V181.077" stroke="#592D3D" stroke-width="2.508" stroke-miterlimit="10"/>
<path d="M151.778 182.962C151.739 182.103 151.758 181.241 151.791 180.38C151.824 179.518 151.888 178.659 151.966 177.797C152.007 177.367 152.05 176.936 152.1 176.505C152.149 176.074 152.2 175.646 152.275 175.215C152.418 174.328 152.666 173.461 153.014 172.632C153.362 173.461 153.61 174.328 153.754 175.215C153.828 175.646 153.881 176.076 153.929 176.505C153.976 176.934 154.022 177.367 154.063 177.797C154.141 178.659 154.205 179.518 154.238 180.38C154.271 181.241 154.289 182.103 154.25 182.962H151.778Z" fill="#592D3D"/>
<path d="M140.23 177.284C140.275 175.337 142.747 174.512 143.983 175.749C144.184 175.954 144.343 176.197 144.45 176.463C144.557 176.73 144.61 177.015 144.607 177.302C144.604 177.589 144.545 177.873 144.432 178.137C144.32 178.401 144.156 178.64 143.951 178.841C143.746 179.042 143.504 179.201 143.237 179.308C142.971 179.415 142.686 179.469 142.399 179.466C142.112 179.463 141.829 179.404 141.564 179.291C141.3 179.178 141.061 179.015 140.86 178.809C140.659 178.61 140.501 178.372 140.392 178.11C140.284 177.848 140.229 177.567 140.23 177.284Z" fill="#592D3D"/>
<path d="M106.74 177.223C106.697 175.543 108.551 174.718 109.787 175.337C111.435 175.955 111.435 178.222 109.787 179.253C108.963 179.665 108.139 179.253 107.366 178.742C107.167 178.542 107.009 178.305 106.902 178.045C106.794 177.784 106.739 177.505 106.74 177.223Z" fill="#592D3D"/>
<path d="M125.67 175.083C125.817 175.472 125.921 175.875 125.979 176.287C126.04 176.685 126.074 177.087 126.08 177.49L126.141 179.9C126.16 180.701 126.185 181.505 126.193 182.309L126.228 184.714C126.275 187.923 126.273 191.136 126.286 194.347C126.298 197.558 126.323 200.769 126.286 203.981C126.267 205.586 126.224 207.192 126.176 208.797C126.156 209.599 126.117 210.403 126.038 211.205C125.968 212.015 125.846 212.818 125.674 213.614C125.501 212.818 125.379 212.015 125.309 211.205C125.231 210.403 125.192 209.599 125.171 208.797C125.124 207.192 125.08 205.586 125.062 203.981C125.021 200.769 125.062 197.558 125.062 194.347C125.062 191.136 125.062 187.927 125.099 184.716L125.134 182.305L125.202 179.898L125.27 177.49C125.278 177.087 125.312 176.685 125.373 176.287C125.427 175.876 125.527 175.472 125.67 175.083Z" fill="#F3AB98"/>
<path d="M110.265 185.642C110.57 185.496 110.894 185.392 111.227 185.332C111.545 185.273 111.867 185.238 112.191 185.229L114.117 185.161L117.969 185.077C120.536 185.038 123.101 185.027 125.67 185.021C128.239 185.015 130.805 184.988 133.372 185.021C134.655 185.04 135.939 185.083 137.224 185.131C137.865 185.153 138.508 185.192 139.148 185.269C139.799 185.341 140.443 185.463 141.075 185.635C140.443 185.809 139.799 185.931 139.148 186C138.508 186.079 137.865 186.118 137.224 186.138C135.939 186.186 134.655 186.227 133.372 186.246C130.805 186.285 128.239 186.246 125.67 186.246C123.101 186.246 120.534 186.246 117.965 186.215C116.682 186.202 115.398 186.161 114.117 186.112L112.191 186.042C111.868 186.033 111.546 185.998 111.229 185.939C110.896 185.883 110.572 185.783 110.265 185.642Z" fill="#F3AB98"/>
<path d="M113.806 192.109C114.049 191.993 114.309 191.916 114.576 191.88C114.823 191.845 115.073 191.835 115.322 191.849C115.815 191.87 116.307 191.882 116.799 191.893C117.784 191.915 118.769 191.924 119.753 191.928C121.737 191.928 123.686 191.944 125.678 191.884C127.67 191.825 129.646 191.796 131.627 191.804C132.618 191.804 133.609 191.831 134.598 191.853C135.096 191.86 135.593 191.892 136.087 191.95C136.595 192.006 137.097 192.112 137.585 192.266C137.108 192.453 136.614 192.591 136.11 192.678C135.619 192.766 135.123 192.825 134.625 192.855C133.632 192.927 132.639 192.989 131.648 193.024C129.662 193.098 127.678 193.09 125.699 193.117C124.708 193.117 123.719 193.162 122.716 193.137C121.712 193.113 120.719 193.111 119.724 193.074C118.73 193.037 117.73 192.954 116.737 192.851C116.239 192.795 115.745 192.733 115.248 192.666C114.997 192.635 114.751 192.577 114.513 192.492C114.257 192.406 114.018 192.276 113.806 192.109Z" fill="#F3AB98"/>
<path d="M113.089 199.424C113.334 199.28 113.599 199.175 113.876 199.114C114.134 199.054 114.398 199.02 114.663 199.013L116.235 198.947C117.283 198.91 118.334 198.88 119.382 198.863C121.48 198.832 123.577 198.832 125.67 198.832C127.762 198.832 129.864 198.797 131.961 198.832C133.009 198.85 134.058 198.894 135.107 198.941C135.633 198.959 136.157 199.005 136.678 199.077C137.215 199.151 137.743 199.276 138.256 199.45C137.745 199.622 137.219 199.744 136.684 199.815C136.163 199.89 135.637 199.936 135.111 199.953C134.062 200.001 133.014 200.044 131.965 200.062C129.868 200.104 127.769 200.075 125.672 200.062C123.575 200.05 121.477 200.05 119.38 200.011C118.332 199.99 117.281 199.953 116.233 199.91L114.661 199.834C114.396 199.826 114.132 199.791 113.874 199.731C113.598 199.671 113.333 199.567 113.089 199.424Z" fill="#F3AB98"/>
<path d="M135.527 178.424L126.848 171.34L142.222 160.048H109.117L124.491 171.34L115.812 178.424L108.061 166.779V182.954H143.959V165.757L135.527 178.424Z" fill="#F3AB98"/>
<path d="M149.702 159.912L140.899 159.933C140.854 160.864 140.755 161.791 140.605 162.711C140.508 163.152 140.388 163.588 140.246 164.018C139.764 165.355 136.691 166.491 135.819 167.466C135.531 167.79 135.221 168.095 134.892 168.379C129.707 172.13 121.467 172.336 116.459 168.259C115.919 167.787 115.429 167.262 114.995 166.691C114.123 165.545 111.616 164.302 111.266 162.787C111.167 162.339 111.092 161.886 111.044 161.429C110.994 160.963 110.969 160.496 110.969 160.028L101.656 159.912C100.931 159.912 100.235 160.2 99.7224 160.713C99.2093 161.226 98.9209 161.921 98.9205 162.647V221.321C98.9209 222.047 99.2093 222.742 99.7224 223.257C100.235 223.769 100.931 224.057 101.656 224.057H150.876C151.601 224.057 152.296 223.769 152.809 223.255C153.322 222.742 153.61 222.047 153.61 221.321V164.001C153.61 161.491 152.398 159.912 149.702 159.912Z" fill="white"/>
<path d="M148.915 159.912C162.004 159.912 167.15 168.855 165.168 215.971C161.308 217.352 153.651 216.917 153.651 216.917L148.915 159.912Z" fill="white"/>
<path d="M115.588 179.953L125.569 174.988L135.576 179.953L127.942 171.087L118.9 171.258L115.588 179.953Z" fill="#E2E2E2"/>
<path d="M153.61 174.988C153.61 174.988 148.915 192.412 149.632 223.216L156.473 216.826L157.211 188.471C156.053 173.585 153.61 174.988 153.61 174.988Z" fill="#E2E2E2"/>
<path d="M102.804 159.912C90.0769 159.912 84.4941 171.547 86.169 210.506C90.7875 212.548 97.7442 211.656 97.7442 211.656L102.804 159.912Z" fill="white"/>
<path d="M85.8992 200.994C85.9349 203.805 86.0177 206.793 86.1483 209.955C89.2939 210.105 95.1485 210.136 97.9129 209.955L98.7742 201.132C96.5554 200.872 89.3435 200.788 85.8992 200.994Z" fill="#E2E2E2"/>
<path d="M98.9142 174.988L98.8112 211.611L96.0612 211.797C95.4492 181.077 98.9142 174.988 98.9142 174.988Z" fill="#E2E2E2"/>
<path d="M144.727 161.042L129.345 172.338L138.026 179.424L150.266 161.031L144.727 161.042Z" fill="#E2E2E2"/>
<path d="M148.915 159.912C162.803 159.912 165.076 171.511 165.168 187.484V215.971C165.168 215.971 154.868 217.111 153.651 216.917L153.63 187.628" stroke="#592D3D" stroke-width="2.4662" stroke-miterlimit="10" stroke-linecap="square"/>
<path d="M102.803 159.912C97.503 159.912 93.8382 161.586 91.3273 164.537C87.3204 169.25 86.2534 177.22 86.1771 186.851V212.361C88.6615 213.045 98.8174 211.611 98.8174 211.611L98.9184 187.167" stroke="#592D3D" stroke-width="2.4662" stroke-miterlimit="10" stroke-linecap="square"/>
<path d="M101.656 224.057H125.67C103.176 224.057 104.882 176.419 98.9121 176.419V221.321C98.9126 221.682 98.9836 222.037 99.1218 222.371C99.2599 222.704 99.4622 223.004 99.717 223.258C99.972 223.512 100.274 223.714 100.607 223.851C100.94 223.987 101.296 224.058 101.656 224.057Z" fill="#E2E2E2"/>
<path d="M97.6842 180.961C97.6452 180.205 97.6617 179.446 97.6968 178.694C97.7317 177.942 97.7935 177.181 97.8719 176.427C97.9129 176.05 97.9564 175.671 98.0057 175.291C98.0552 174.912 98.1066 174.535 98.1808 174.158C98.3267 173.373 98.5754 172.611 98.9205 171.891C99.2653 172.611 99.514 173.373 99.6599 174.158C99.7341 174.535 99.7876 174.914 99.8351 175.291C99.8823 175.668 99.9277 176.05 99.9688 176.427C100.049 177.185 100.108 177.941 100.146 178.694C100.179 179.451 100.196 180.209 100.146 180.961H97.6842Z" fill="#592D3D"/>
<path d="M153.61 182.839V184.487C153.663 191.495 153.663 198.708 153.61 205.666C153.61 206.257 153.61 206.846 153.61 207.425V221.318C153.61 222.042 153.321 222.739 152.809 223.252C152.296 223.764 151.601 224.052 150.876 224.052H101.656C100.931 224.052 100.235 223.764 99.7224 223.252C99.2093 222.739 98.9209 222.044 98.9205 221.318V207.756C98.8668 200.571 98.8668 193.358 98.9205 186.054V180.961" stroke="#592D3D" stroke-width="2.4662" stroke-miterlimit="10"/>
<path d="M166.338 203.622C166.796 204.088 166.666 211.535 166.338 212.071C166.011 212.61 153.154 212.467 152.996 212.071C152.837 211.677 152.604 204.343 152.996 203.622C153.051 203.519 153.465 203.438 154.118 203.378" fill="white"/>
<path d="M152.374 182.839C152.335 181.977 152.353 181.116 152.386 180.256C152.419 179.397 152.483 178.533 152.563 177.674C152.604 177.243 152.645 176.812 152.695 176.382C152.744 175.951 152.796 175.52 152.872 175.089C153.014 174.202 153.262 173.335 153.61 172.507C153.959 173.335 154.207 174.202 154.349 175.089C154.423 175.52 154.479 175.951 154.524 176.382C154.57 176.812 154.617 177.243 154.658 177.674C154.738 178.533 154.8 179.395 154.833 180.256C154.866 181.118 154.887 181.977 154.846 182.839H152.374Z" fill="#592D3D"/>
<path d="M101.656 159.933L149.702 159.912" stroke="#592D3D" stroke-width="2.4662" stroke-miterlimit="10"/>
<path d="M131.724 175.862L127.12 171.258L122.518 175.862L124.78 178.125L122.777 200.102L127.05 203.435L131.462 200.102L129.462 178.125L131.724 175.862Z" fill="#E2E2E2"/>
<path d="M125.678 171.258V224.057" stroke="#592D3D" stroke-width="1.254" stroke-miterlimit="10" stroke-linecap="square"/>
<path d="M125.678 171.258L130.282 174.419L125.678 179.026L121.076 174.419L125.678 171.258Z" fill="#633749"/>
<path d="M109.111 160.044C109.111 160.044 118.025 168.152 124.491 171.34C121.344 176.536 115.813 178.428 115.813 178.428L103.57 160.038L109.111 160.044Z" fill="white" stroke="#592D3D" stroke-width="2.4662" stroke-miterlimit="10"/>
<path d="M142.228 160.044C142.228 160.044 134.116 168.535 126.848 171.34C128.908 175.52 135.527 178.424 135.527 178.424L147.77 160.034L142.228 160.044Z" fill="white" stroke="#592D3D" stroke-width="2.4662" stroke-miterlimit="10"/>
<path d="M125.663 201.571C127.081 201.571 128.23 200.422 128.23 199.003C128.23 197.585 127.081 196.435 125.663 196.435C124.246 196.435 123.097 197.585 123.097 199.003C123.097 200.422 124.246 201.571 125.663 201.571Z" fill="black" stroke="white" stroke-width="5.016"/>
<path d="M125.663 201.571C127.081 201.571 128.23 200.422 128.23 199.003C128.23 197.585 127.081 196.435 125.663 196.435C124.246 196.435 123.097 197.585 123.097 199.003C123.097 200.422 124.246 201.571 125.663 201.571Z" fill="#5683FF"/>
<path d="M135.504 196.275H121.57L118.318 202.009L121.987 206.224H128.126L130.56 202.009L123.985 202.016L125.14 200.209H137.789C138.795 198.455 137.528 196.275 135.504 196.275Z" fill="url(#paint0_linear_1_2)"/>
<path d="M117.056 200.566L119.345 196.632L120.33 194.938H120.342C120.385 194.736 120.406 194.525 120.406 194.312C120.406 192.959 119.519 191.807 118.275 191.37H118.266L115.14 196.763L115 197.003C114.084 198.585 115.225 200.566 117.056 200.566Z" fill="url(#paint1_linear_1_2)"/>
<path d="M118.277 191.37C119.521 191.81 120.408 192.961 120.408 194.312C120.408 194.528 120.385 194.736 120.344 194.938H132.734L130.56 191.37H118.277Z" fill="url(#paint2_linear_1_2)"/>
<path opacity="0.35" d="M118.639 191.37H118.277C119.521 191.81 120.408 192.961 120.408 194.312C120.408 194.528 120.385 194.736 120.344 194.938H120.704C120.747 194.736 120.768 194.525 120.768 194.312C120.77 192.961 119.881 191.81 118.639 191.37Z" fill="#5683FF"/>
<path d="M132.445 201.981L130.069 206.062L129.047 207.818H129.033C128.99 208.029 128.967 208.244 128.967 208.466C128.967 209.87 129.888 211.065 131.178 211.521H131.187L134.434 205.927L136.721 201.981H132.445Z" fill="url(#paint3_linear_1_2)"/>
<path d="M121.335 198.659L125.608 201.992L130.021 198.659L127.96 176.033H123.395L121.335 198.659Z" fill="#633749"/>
<path d="M121.076 174.42L123.338 176.683L121.335 198.659L125.608 201.992L130.021 198.659L128.02 176.683L130.282 174.42" stroke="#592D3D" stroke-width="1.672" stroke-miterlimit="10"/>
<path d="M123.793 175.994C123.783 175.982 123.793 175.994 123.793 175.994L123.807 176.004C123.82 176.011 123.832 176.02 123.842 176.029L123.921 176.089C123.972 176.132 124.028 176.175 124.081 176.223C124.19 176.316 124.306 176.415 124.432 176.509C124.557 176.604 124.693 176.695 124.844 176.802C125.04 176.95 125.226 177.11 125.402 177.282C125.255 177.522 125.026 177.7 124.757 177.783C124.509 177.852 124.25 177.871 123.995 177.839C123.735 177.813 123.483 177.744 123.247 177.633C123.127 177.575 123.013 177.506 122.907 177.427C122.852 177.386 122.799 177.343 122.749 177.297C122.724 177.274 122.697 177.249 122.672 177.223L122.631 177.179L122.58 177.12L123.793 175.994Z" fill="#592D3D"/>
<path d="M83.7463 121.67V119.005C83.4248 117.26 83.5625 115.462 84.1461 113.787C84.3383 113.24 84.5804 112.712 84.869 112.21C85.5593 110.415 87.4132 108.972 89.2672 108.354C92.1512 107.53 95.6532 107.942 97.9194 110.209C100.803 113.3 100.391 117.835 100.484 121.672" stroke="#592D3D" stroke-width="2.508" stroke-miterlimit="10" stroke-linecap="round"/>
<path d="M151.072 121.751C150.59 116.264 151.414 108.638 158.515 107.907C159.071 107.856 159.631 107.856 160.187 107.907C161.863 108.052 163.464 108.665 164.81 109.675C168.518 112.767 167.694 117.713 167.684 121.759" stroke="#592D3D" stroke-width="2.508" stroke-miterlimit="10" stroke-linecap="round"/>
<path d="M113.956 131.821C113.956 127.925 137.383 128.511 137.383 131.821C137.383 134.929 136.149 137.909 133.952 140.107C131.755 142.305 128.776 143.539 125.67 143.539C122.563 143.539 119.584 142.305 117.387 140.107C115.191 137.909 113.956 134.929 113.956 131.821Z" fill="#592D3D"/>
<path d="M124.64 136.178C121.148 135.971 118.103 137.569 117.09 139.933C118.775 141.714 120.976 142.921 123.384 143.385C125.791 143.848 128.283 143.544 130.509 142.515C130.971 142.301 131.42 142.057 131.85 141.783C131.66 138.875 128.566 136.421 124.64 136.178Z" fill="#F28195"/>
<path d="M113.956 131.821C113.956 127.925 137.383 128.511 137.383 131.821C137.383 134.929 136.149 137.909 133.952 140.107C131.755 142.305 128.776 143.539 125.67 143.539C122.563 143.539 119.584 142.305 117.387 140.107C115.191 137.909 113.956 134.929 113.956 131.821Z" stroke="#592D3D" stroke-width="1.254" stroke-miterlimit="10"/>
<path d="M121.162 134.005C121.255 133.983 121.292 133.972 121.352 133.962L121.506 133.933C121.607 133.915 121.712 133.904 121.807 133.896C122.005 133.876 122.204 133.869 122.402 133.875C122.805 133.884 123.206 133.94 123.595 134.042C124.411 134.249 125.151 134.685 125.727 135.299C126.269 135.883 126.633 136.61 126.774 137.394C126.903 138.117 126.805 138.862 126.494 139.527C126.067 138.923 125.74 138.381 125.398 137.927C125.244 137.71 125.075 137.503 124.893 137.309C124.727 137.138 124.54 136.989 124.337 136.864C123.952 136.633 123.523 136.487 123.078 136.433C122.845 136.403 122.609 136.386 122.374 136.384C122.252 136.384 122.131 136.384 122.011 136.394L121.836 136.406H121.756C121.735 136.406 121.694 136.406 121.708 136.406L121.162 134.005Z" fill="#592D3D"/>
<path d="M137.768 85.9592C135.119 90.9056 125.408 93.6757 124.619 92.4348C123.735 91.0479 132.416 81.0333 127.482 70.5592" fill="#F3AB98"/>
<path d="M184.174 74.3166C183.123 73.2656 177.776 74.6939 172.393 74.2692C167.118 67.1028 160.264 61.2489 152.362 57.1619C144.46 53.0749 135.723 50.8649 126.829 50.7036C126.327 46.4826 126.675 42.9378 126.292 42.439C125.779 41.7754 123.101 45.0524 122.405 48.828C119.951 45.7365 115.784 44.0878 115.664 44.9534C115.586 45.5058 117.197 47.8574 118.715 51.1157C95.7253 53.8921 76.8804 70.1306 70.2883 91.7175C67.4332 94.1743 64.755 95.9097 64.7262 97.0123C64.6706 99.0568 72.8241 98.9414 76.3817 98.6241V98.6116C88.8757 98.1995 113.256 95.7715 125.085 83.5889C123.948 87.5235 121.852 90.4232 122.256 91.0414C122.874 92.0041 130.15 89.972 132.571 86.252C142.459 90.2894 161.306 95.147 177.685 82.9211L177.64 82.8327C180.625 80.3369 185.482 75.6356 184.174 74.3166Z" fill="#A56941"/>
<path d="M172.401 75.5058C171.289 75.5551 170.205 75.5284 169.105 75.477C168.005 75.4254 166.923 75.3386 165.836 75.2172C165.292 75.1574 164.748 75.0937 164.206 75.0111C163.664 74.9288 163.121 74.8627 162.581 74.7576C161.481 74.5597 160.405 74.2462 159.371 73.8219C160.452 73.545 161.555 73.3644 162.667 73.2821C163.209 73.2365 163.751 73.2056 164.293 73.183L165.916 73.1128C166.998 73.0676 168.077 73.0428 169.155 73.0202C170.232 72.9976 171.313 72.9955 172.372 73.0202L172.401 75.5058Z" fill="#592D3D"/>
<path d="M71.409 92.2783C71.409 92.2783 71.409 92.3276 71.409 92.3585L71.3841 92.4679L71.3266 92.6965C71.2834 92.8512 71.238 93.0098 71.1906 93.1686C71.0938 93.488 70.9847 93.8157 70.8733 94.1476C70.7621 94.4793 70.6549 94.8235 70.5086 95.178C70.4269 95.3633 70.3318 95.5422 70.2244 95.714C70.1011 95.9176 69.9583 96.1086 69.798 96.2848C69.4507 95.9805 69.1869 95.5924 69.0318 95.1575C68.9612 94.9635 68.9087 94.7635 68.8753 94.5597C68.8318 94.3537 68.8113 94.1476 68.7867 93.9518C68.7453 93.5407 68.7453 93.1262 68.7867 92.7151C68.8067 92.5071 68.8397 92.3007 68.8853 92.0969C68.9102 91.9938 68.9369 91.8906 68.97 91.7857C68.9856 91.7318 69.0042 91.6789 69.0255 91.627C69.046 91.5692 69.0625 91.528 69.0995 91.4415L71.409 92.2783Z" fill="#592D3D"/>
<path d="M76.3817 98.6302V98.6179C79.8837 98.5025 84.3396 98.2264 89.1828 97.6203C89.7245 86.0952 93.7147 72.5627 102.762 56.7217L101.361 56.0519C93.9724 59.4866 87.3874 64.4376 82.0343 70.5828C76.6812 76.7283 72.6793 83.931 70.2883 91.7238C67.4332 94.1806 64.755 95.9159 64.7262 97.0186C64.6706 99.0631 72.8241 98.9477 76.3817 98.6302Z" fill="#8D5638"/>
<path d="M184.174 74.3166C183.123 73.2656 177.776 74.6939 172.393 74.2692C167.118 67.1028 160.264 61.2489 152.362 57.1619C144.46 53.0749 135.723 50.8649 126.829 50.7036C126.327 46.4826 126.675 42.9378 126.292 42.439C125.779 41.7754 123.101 45.0524 122.405 48.828C119.951 45.7365 115.784 44.0878 115.664 44.9534C115.586 45.5058 117.197 47.8574 118.715 51.1157C95.7253 53.8921 76.8804 70.1306 70.2883 91.7175C67.4332 94.1743 64.755 95.9097 64.7262 97.0123C64.6706 99.0568 72.8241 98.9414 76.3817 98.6241V98.6116C88.8757 98.1995 113.256 95.7715 125.085 83.5889C123.948 87.5235 121.852 90.4232 122.256 91.0414C122.874 92.0041 130.15 89.972 132.571 86.252C142.459 90.2894 161.306 95.147 177.685 82.9211L177.64 82.8327C180.625 80.3369 185.482 75.6356 184.174 74.3166Z" stroke="#592D3D" stroke-width="2.4662" stroke-miterlimit="10"/>
<path d="M126.891 54.0075C123.957 54.1765 121.035 54.5164 118.14 55.0255C117.423 55.1636 116.709 55.3162 115.99 55.4481C115.271 55.58 114.568 55.7798 113.858 55.9447L111.744 56.5054C111.044 56.7115 110.349 56.9341 109.653 57.1483C106.876 58.0445 104.162 59.1275 101.53 60.3903C98.8864 61.6744 96.3237 63.1199 93.8568 64.7183C96.054 62.7136 98.4797 60.9743 101.083 59.5372C103.689 58.0813 106.433 56.8877 109.274 55.9735C109.991 55.7674 110.704 55.5428 111.421 55.3451C112.137 55.1471 112.862 54.9699 113.594 54.8092C114.325 54.6485 115.057 54.5206 115.79 54.397C116.523 54.2733 117.263 54.1763 118 54.0837C120.951 53.7205 123.934 53.6948 126.891 54.0075Z" fill="white"/>
<path d="M106.571 101.52H81.7194C80.5741 101.52 79.4287 101.503 78.2832 101.52H78.2339C77.1563 101.52 76.1244 102.468 76.1738 103.581C76.1827 104.124 76.4028 104.644 76.7872 105.028C77.1713 105.413 77.6903 105.633 78.2339 105.642H103.086C104.229 105.642 105.376 105.658 106.522 105.642H106.571C107.649 105.642 108.681 104.694 108.631 103.581C108.622 103.037 108.402 102.518 108.017 102.134C107.633 101.75 107.115 101.529 106.571 101.52Z" fill="#592D3D"/>
<path d="M172.292 101.52H147.44C146.295 101.52 145.149 101.503 144.004 101.52H143.954C142.877 101.52 141.845 102.468 141.894 103.581C141.903 104.124 142.123 104.644 142.508 105.028C142.892 105.413 143.411 105.633 143.954 105.642H168.806C169.952 105.642 171.097 105.658 172.242 105.642H172.292C173.369 105.642 174.401 104.694 174.352 103.581C174.343 103.037 174.122 102.518 173.738 102.134C173.354 101.75 172.835 101.529 172.292 101.52Z" fill="#592D3D"/>
</g>
</g>
<defs>
<linearGradient id="paint0_linear_1_2" x1="132.168" y1="193.937" x2="124.307" y2="207.563" gradientUnits="userSpaceOnUse">
<stop stop-color="#5683FF"/>
<stop offset="1" stop-color="#5683FF"/>
</linearGradient>
<linearGradient id="paint1_linear_1_2" x1="115.649" y1="192.882" x2="119.326" y2="199.256" gradientUnits="userSpaceOnUse">
<stop offset="0.3" stop-color="#5683FF"/>
<stop offset="1" stop-color="#5683FF"/>
</linearGradient>
<linearGradient id="paint2_linear_1_2" x1="127.875" y1="189.054" x2="123.446" y2="196.729" gradientUnits="userSpaceOnUse">
<stop offset="0.5" stop-color="#5683FF"/>
<stop offset="1" stop-color="#5683FF"/>
</linearGradient>
<linearGradient id="paint3_linear_1_2" x1="134.975" y1="209.335" x2="131.16" y2="202.722" gradientUnits="userSpaceOnUse">
<stop offset="0.3" stop-color="#5683FF"/>
<stop offset="1" stop-color="#5683FF"/>
</linearGradient>
<clipPath id="clip0_1_2">
<rect width="250" height="250" fill="white"/>
</clipPath>
</defs>
</svg>
