<svg width="1000" height="1000" viewBox="0 0 1000 1000" fill="none" xmlns="http://www.w3.org/2000/svg">
<g clip-path="url(#clip0_1_74)">
<path d="M1000 0H0V1000H1000V0Z" fill="#5683FF"/>
<mask id="mask0_1_74" style="mask-type:alpha" maskUnits="userSpaceOnUse" x="76" y="-37" width="849" height="849">
<path d="M500.103 811.206C734.329 811.206 924.206 621.329 924.206 387.103C924.206 152.877 734.329 -37 500.103 -37C265.877 -37 76 152.877 76 387.103C76 621.329 265.877 811.206 500.103 811.206Z" fill="#008000"/>
</mask>
<g mask="url(#mask0_1_74)">
<path d="M596.815 624.631C672.693 624.631 657.008 720.186 657.736 826.45H596.815V624.631Z" fill="#FDD2B2"/>
<path d="M615.825 685.817L596.815 717.71L606.328 826.45H632.88C633.524 675.662 615.825 685.817 615.825 685.817Z" fill="#F3AB98"/>
<path d="M281.838 408.228C281.838 285.004 381.685 185.108 504.85 185.108C628.015 185.108 727.862 285.004 727.862 408.228C727.894 441.43 720.504 474.218 706.234 504.194C691.964 534.168 671.174 560.572 645.388 581.471C640.812 585.196 636.091 588.734 631.225 592.086C580.929 624.029 517.39 624.029 460.03 618.918C454.462 618.082 448.91 617.028 443.401 615.815C421.389 610.964 400.078 603.478 380.389 592.562C375.524 589.562 370.805 586.322 366.235 582.843C361.642 579.343 357.232 575.608 353.026 571.651C349.046 567.954 345.204 564.113 341.497 560.125C303.087 518.887 281.763 464.595 281.838 408.228Z" fill="#FDD2B2"/>
<path d="M312.236 520.712C312.821 521.716 313.398 522.719 313.999 523.707C314.359 524.309 314.735 524.894 315.112 525.497C315.663 526.392 316.215 527.287 316.784 528.165C317.185 528.801 317.619 529.419 318.004 530.038C318.556 530.875 319.108 531.711 319.677 532.548C320.103 533.183 320.512 533.819 320.981 534.455C321.532 535.291 322.084 536.061 322.652 536.864C323.104 537.508 323.572 538.144 324.032 538.788C324.492 539.432 325.152 540.335 325.704 541.104C326.256 541.874 326.665 542.384 327.15 543.019C327.636 543.656 328.296 544.526 328.882 545.278C329.467 546.031 329.876 546.541 330.377 547.169C330.879 547.796 331.557 548.64 332.15 549.368C332.743 550.096 333.179 550.615 333.697 551.233C334.215 551.853 334.9 552.673 335.51 553.384C336.121 554.094 336.573 554.613 337.108 555.224L338.964 557.314C339.507 557.925 340.059 558.52 340.636 559.122C341.354 559.907 342.082 560.686 342.809 561.455L343.821 562.526C344.9 563.646 345.987 564.767 347.09 565.872L347.307 566.097C348.386 567.168 349.481 568.231 350.576 569.284L351.897 570.539C352.692 571.282 353.486 572.028 354.288 572.763L355.258 573.651C356.094 574.436 357.006 575.206 357.883 575.976C360.614 578.357 363.401 580.64 366.243 582.827C370.808 586.306 375.526 589.545 380.397 592.545C400.086 603.419 421.363 610.947 443.41 615.799C448.919 617.011 454.47 618.057 460.039 618.902C495.235 622.038 532.773 623.234 568.121 616.326C511.914 599.772 241.991 502.528 411.883 205.375C409.609 206.421 407.368 207.5 405.145 208.62L404.651 208.864C403.631 209.373 402.611 209.9 401.6 210.435L400.763 210.879C397.62 212.552 394.51 214.283 391.458 216.089L390.706 216.533C389.736 217.11 388.775 217.696 387.813 218.29L387.086 218.741C384.098 220.61 381.158 222.542 378.266 224.538L377.363 225.165C376.452 225.801 375.557 226.437 374.662 227.08L374.11 227.473C372.288 228.806 370.488 230.156 368.71 231.522L368.192 231.924C367.355 232.576 366.52 233.245 365.683 233.923L364.706 234.709C363.869 235.386 363.033 236.064 362.197 236.759C360.433 238.223 358.694 239.727 356.98 241.25L356.027 242.086L353.778 244.135L352.692 245.123C350.306 247.353 347.973 249.631 345.694 251.957L344.54 253.136C343.88 253.821 343.219 254.507 342.567 255.202C342.182 255.612 341.798 256.037 341.421 256.439C340.274 257.666 339.142 258.909 338.028 260.17C337.651 260.596 337.266 261.006 336.89 261.458C336.297 262.135 335.711 262.822 335.126 263.508L333.863 265.005C333.296 265.682 332.727 266.36 332.191 267.045C331.74 267.598 331.289 268.157 330.846 268.718C329.951 269.831 329.073 270.943 328.204 272.064C327.753 272.649 327.301 273.236 326.858 273.829C326.415 274.423 325.854 275.159 325.362 275.836C324.868 276.514 324.467 277.049 324.032 277.66C323.597 278.271 323.088 278.956 322.627 279.608C321.836 280.724 321.056 281.853 320.287 282.997C319.869 283.607 319.45 284.234 319.041 284.853C318.631 285.472 318.121 286.242 317.67 286.944L316.424 288.877L315.019 291.143C314.66 291.721 314.301 292.297 313.95 292.875C313.205 294.096 312.487 295.325 311.767 296.555L310.748 298.362C310.296 299.157 309.844 299.959 309.402 300.762C309.067 301.373 308.732 301.984 308.406 302.594C307.872 303.59 307.345 304.594 306.818 305.596L305.815 307.554C305.279 308.625 304.745 309.687 304.217 310.766C303.943 311.344 303.658 311.929 303.382 312.514C302.947 313.426 302.546 314.346 302.103 315.266C301.844 315.818 301.592 316.37 301.342 316.939C300.723 318.317 300.119 319.711 299.528 321.121C299.344 321.556 299.168 322 298.984 322.435C298.541 323.497 298.106 324.56 297.68 325.629C297.454 326.19 297.237 326.751 297.02 327.303C296.601 328.356 296.184 329.419 295.808 330.481C295.632 330.941 295.456 331.401 295.289 331.861C294.765 333.328 294.249 334.794 293.742 336.261L293.274 337.682C292.906 338.799 292.547 339.913 292.196 341.028L291.695 342.626C291.301 343.914 290.917 345.202 290.549 346.499C290.466 346.774 290.382 347.051 290.307 347.336C289.872 348.874 289.454 350.419 289.052 351.969C288.918 352.463 288.801 352.964 288.676 353.458C288.383 354.62 288.099 355.783 287.84 356.954L287.489 358.418C287.13 360.007 286.778 361.597 286.452 363.194L286.327 363.838C286.043 365.26 285.764 366.682 285.491 368.104C285.399 368.615 285.315 369.116 285.223 369.627C285.006 370.873 284.797 372.136 284.604 373.39C284.537 373.817 284.463 374.226 284.403 374.662C284.153 376.293 283.928 377.932 283.71 379.579L283.585 380.668C283.418 381.997 283.267 383.335 283.125 384.674C283.075 385.175 283.016 385.677 282.966 386.188C282.832 387.592 282.707 389.006 282.59 390.42C282.59 390.713 282.539 390.998 282.523 391.257C282.4 392.929 282.291 394.616 282.197 396.317C282.197 396.761 282.197 397.212 282.139 397.655C282.083 398.971 282.032 400.284 281.988 401.595C281.988 402.089 281.988 402.582 281.988 403.076C281.988 404.79 281.921 406.513 281.921 408.236C281.921 408.236 281.921 408.295 281.921 408.32C281.921 410.177 281.921 412.017 281.988 413.857C281.988 414.493 282.038 415.129 282.055 415.764C282.096 416.994 282.139 418.224 282.197 419.453C282.197 420.197 282.289 420.933 282.33 421.678C282.397 422.79 282.456 423.903 282.539 425.024C282.598 425.86 282.673 426.605 282.74 427.39C282.833 428.445 282.916 429.499 283.024 430.544C283.1 431.381 283.2 432.167 283.284 432.978C283.401 433.99 283.509 435.011 283.635 436.022C283.735 436.859 283.852 437.696 283.961 438.491C284.095 439.477 284.229 440.473 284.379 441.459C284.504 442.296 284.637 443.133 284.771 443.968C284.922 444.939 285.081 445.918 285.248 446.888C285.399 447.724 285.549 448.561 285.708 449.397C285.884 450.359 286.068 451.321 286.252 452.274C286.436 453.228 286.594 453.948 286.77 454.784C286.971 455.737 287.171 456.682 287.388 457.628C287.605 458.573 287.756 459.301 287.957 460.079C288.175 461.024 288.409 461.961 288.643 462.889C288.877 463.817 289.052 464.52 289.261 465.323C289.512 466.26 289.763 467.188 290.023 468.117C290.24 468.953 290.466 469.723 290.7 470.517C290.967 471.446 291.242 472.366 291.535 473.286C291.828 474.206 292.02 474.867 292.271 475.662C292.522 476.456 292.857 477.494 293.158 478.405C293.458 479.317 293.675 479.97 293.943 480.747C294.26 481.659 294.578 482.57 294.904 483.482C295.181 484.244 295.448 485.013 295.741 485.775L296.777 488.509C297.07 489.253 297.355 490.007 297.613 490.75C297.981 491.663 298.358 492.583 298.734 493.494C299.035 494.214 299.328 494.941 299.636 495.661C300.03 496.598 300.473 497.518 300.848 498.446C301.158 499.132 301.459 499.826 301.769 500.512C302.203 501.483 302.663 502.436 303.106 503.39L304.009 505.313C304.519 506.367 305.046 507.404 305.572 508.45C305.84 508.978 306.09 509.512 306.367 510.039C307.972 513.168 309.643 516.254 311.382 519.299C311.626 519.692 311.934 520.202 312.236 520.712Z" fill="#F3AB98"/>
<path d="M281.838 408.228C281.838 285.004 381.685 185.108 504.85 185.108C628.015 185.108 727.862 285.004 727.862 408.228C727.894 441.43 720.504 474.218 706.234 504.194C691.964 534.168 671.174 560.572 645.388 581.471C640.812 585.196 636.091 588.734 631.225 592.086C580.929 624.029 517.39 624.029 460.03 618.918C454.462 618.082 448.91 617.028 443.401 615.815C421.389 610.964 400.078 603.478 380.389 592.562C375.524 589.562 370.805 586.322 366.235 582.843C361.642 579.343 357.232 575.608 353.026 571.651C349.046 567.954 345.204 564.113 341.497 560.125C303.087 518.887 281.763 464.595 281.838 408.228Z" stroke="#592D3D" stroke-width="11.8" stroke-miterlimit="10"/>
<path d="M409.643 624.631C333.755 624.631 349.448 720.186 348.72 826.45H409.643V624.631Z" fill="#FDD2B2"/>
<path d="M393.849 685.817L412.886 717.71L403.363 826.45H376.836C376.159 675.662 393.849 685.817 393.849 685.817Z" fill="#F3AB98"/>
<path d="M604.731 885H404.968C402.026 884.993 399.204 883.825 397.123 881.739C395.043 879.659 393.875 876.837 393.875 873.891V635.739C393.875 632.794 395.043 629.971 397.123 627.888C399.204 625.804 402.026 624.633 404.968 624.631H599.957C610.901 624.631 615.842 631.038 615.842 641.26V873.858C615.847 875.321 615.563 876.765 615.006 878.117C614.45 879.468 613.631 880.702 612.599 881.732C611.567 882.769 610.34 883.589 608.99 884.153C607.64 884.711 606.193 885 604.731 885Z" fill="#FDD2B2"/>
<path d="M612.741 631.239C611.907 630.214 611.202 629.09 610.642 627.893C608.634 626.32 606.246 625.306 603.72 624.958C602.475 624.764 601.217 624.669 599.957 624.674H404.968C402.033 624.675 399.217 625.841 397.138 627.915C395.06 629.989 393.886 632.802 393.875 635.738C418.12 644.455 463.508 649.323 504.85 649.323C557.57 649.323 592.116 641.502 612.741 631.239Z" fill="#F3AB98"/>
<path d="M596.815 624.631C672.693 624.631 657.008 720.186 657.736 826.45H615.825" stroke="#592D3D" stroke-width="12" stroke-miterlimit="10" stroke-linecap="square"/>
<path d="M409.643 624.631C333.755 624.631 349.448 720.186 348.72 826.45H390.581" stroke="#592D3D" stroke-width="12" stroke-miterlimit="10" stroke-linecap="square"/>
<path d="M404.968 624.714L599.957 624.631" stroke="#592D3D" stroke-width="12" stroke-miterlimit="10"/>
<path d="M404.968 885H502.467C411.214 885 418.104 691.63 393.875 691.63V873.858C393.87 875.315 394.154 876.765 394.709 878.117C395.265 879.468 396.081 880.695 397.111 881.732C398.142 882.762 399.367 883.583 400.715 884.147C402.063 884.705 403.508 884.993 404.968 885Z" fill="#F3AB98"/>
<path d="M388.858 710.057C388.7 706.987 388.767 703.917 388.901 700.855C389.035 697.795 389.293 694.708 389.619 691.655C389.786 690.116 389.953 688.585 390.163 687.046C390.372 685.507 390.573 683.976 390.874 682.437C391.467 679.252 392.475 676.159 393.875 673.237C395.274 676.159 396.283 679.252 396.876 682.437C397.177 683.976 397.395 685.507 397.587 687.046C397.779 688.585 397.963 690.116 398.13 691.655C398.448 694.725 398.698 697.795 398.841 700.855C398.983 703.917 399.05 706.995 398.891 710.057H388.858Z" fill="#592D3D"/>
<path d="M615.825 717.71V724.401C616.043 752.84 616.043 782.116 615.825 810.348C615.825 812.749 615.825 815.132 615.825 817.48V873.865C615.829 875.328 615.545 876.772 614.988 878.124C614.433 879.469 613.616 880.695 612.585 881.732C611.555 882.769 610.331 883.589 608.983 884.147C607.636 884.705 606.191 884.993 604.731 885H404.968C402.026 884.993 399.204 883.825 397.123 881.739C395.043 879.659 393.875 876.837 393.875 873.891V825.21C393.875 823.11 393.875 820.971 393.875 818.812C393.665 789.644 393.665 760.369 393.875 730.733V710.057" stroke="#592D3D" stroke-width="12" stroke-miterlimit="10"/>
<path d="M610.809 717.71C610.651 714.222 610.725 710.726 610.859 707.23C610.993 703.733 611.253 700.245 611.57 696.748C611.737 695.001 611.913 693.253 612.114 691.505C612.314 689.756 612.523 688.016 612.824 686.269C613.406 682.668 614.414 679.15 615.825 675.787C617.237 679.15 618.245 682.668 618.826 686.269C619.127 688.016 619.345 689.764 619.537 691.505C619.73 693.244 619.914 695.001 620.081 696.748C620.398 700.245 620.658 703.733 620.791 707.23C620.925 710.726 621 714.222 620.842 717.71H610.809Z" fill="#592D3D"/>
<path d="M563.941 694.666C564.126 686.762 574.157 683.416 579.174 688.435C579.989 689.268 580.633 690.253 581.067 691.334C581.501 692.416 581.719 693.572 581.707 694.737C581.694 695.903 581.454 697.054 580.996 698.126C580.54 699.198 579.877 700.17 579.044 700.986C578.212 701.801 577.227 702.445 576.146 702.879C575.066 703.314 573.91 703.532 572.745 703.52C571.58 703.508 570.429 703.267 569.357 702.81C568.285 702.352 567.314 701.688 566.499 700.855C565.685 700.044 565.04 699.079 564.601 698.017C564.162 696.954 563.937 695.815 563.941 694.666Z" fill="#592D3D"/>
<path d="M428.027 694.416C427.851 687.599 435.376 684.252 440.392 686.761C447.08 689.271 447.08 698.472 440.392 702.654C437.047 704.327 433.704 702.654 430.568 700.58C429.76 699.77 429.119 698.809 428.683 697.752C428.246 696.693 428.023 695.56 428.027 694.416Z" fill="#592D3D"/>
<path d="M504.85 685.733C505.448 687.309 505.869 688.948 506.104 690.617C506.353 692.235 506.489 693.867 506.514 695.502L506.765 705.281C506.839 708.534 506.94 711.796 506.974 715.059L507.115 724.82C507.308 737.843 507.3 750.883 507.35 763.914C507.399 776.947 507.5 789.978 507.35 803.012C507.275 809.527 507.099 816.043 506.907 822.559C506.823 825.814 506.664 829.074 506.347 832.329C506.063 835.617 505.567 838.878 504.867 842.106C504.165 838.878 503.671 835.617 503.387 832.329C503.069 829.074 502.91 825.814 502.827 822.559C502.635 816.043 502.459 809.527 502.384 803.012C502.217 789.978 502.384 776.947 502.384 763.914C502.384 750.883 502.384 737.86 502.534 724.828L502.676 715.042L502.952 705.272L503.229 695.502C503.259 693.867 503.399 692.235 503.646 690.617C503.866 688.95 504.269 687.312 504.85 685.733Z" fill="#F3AB98"/>
<path d="M442.332 728.584C443.571 727.994 444.884 727.572 446.236 727.329C447.526 727.087 448.835 726.947 450.148 726.911L457.965 726.635L473.599 726.292C484.016 726.134 494.424 726.091 504.85 726.067C515.276 726.041 525.693 725.933 536.109 726.067C541.317 726.141 546.526 726.317 551.744 726.509C554.343 726.601 556.952 726.76 559.552 727.07C562.193 727.363 564.806 727.86 567.369 728.559C564.807 729.261 562.193 729.756 559.552 730.04C556.952 730.357 554.343 730.515 551.744 730.599C546.526 730.792 541.317 730.959 536.109 731.034C525.693 731.194 515.276 731.034 504.85 731.034C494.424 731.034 484.007 731.034 473.582 730.91C468.373 730.859 463.165 730.692 457.965 730.491L450.148 730.207C448.837 730.171 447.532 730.032 446.244 729.788C444.892 729.562 443.576 729.157 442.332 728.584Z" fill="#F3AB98"/>
<path d="M456.703 754.831C457.689 754.36 458.745 754.046 459.829 753.903C460.831 753.761 461.846 753.719 462.856 753.777C464.854 753.86 466.853 753.911 468.851 753.953C472.847 754.045 476.843 754.078 480.839 754.095C488.89 754.095 496.799 754.162 504.884 753.919C512.968 753.677 520.986 753.559 529.029 753.593C533.049 753.593 537.071 753.702 541.084 753.793C543.105 753.821 545.122 753.952 547.128 754.187C549.191 754.414 551.227 754.844 553.207 755.467C551.273 756.226 549.267 756.788 547.221 757.14C545.227 757.498 543.214 757.738 541.193 757.859C537.163 758.152 533.133 758.403 529.112 758.545C521.053 758.845 513.002 758.812 504.967 758.921C500.945 758.921 496.932 759.106 492.861 759.005C488.79 758.905 484.76 758.896 480.722 758.745C476.684 758.595 472.63 758.26 468.599 757.842C466.576 757.616 464.57 757.365 462.555 757.09C461.538 756.965 460.537 756.729 459.571 756.387C458.533 756.035 457.563 755.509 456.703 754.831Z" fill="#F3AB98"/>
<path d="M453.794 784.516C454.785 783.932 455.863 783.509 456.987 783.262C458.035 783.018 459.105 782.88 460.181 782.851L466.56 782.584C470.815 782.434 475.078 782.308 479.334 782.241C487.846 782.116 496.356 782.116 504.85 782.116C513.344 782.116 521.871 781.973 530.382 782.116C534.638 782.191 538.893 782.367 543.149 782.559C545.284 782.631 547.413 782.816 549.527 783.112C551.706 783.41 553.85 783.918 555.932 784.625C553.857 785.32 551.721 785.816 549.553 786.106C547.435 786.409 545.303 786.595 543.166 786.666C538.91 786.858 534.655 787.034 530.399 787.109C521.888 787.276 513.37 787.159 504.858 787.109C496.348 787.059 487.836 787.059 479.325 786.9C475.07 786.817 470.807 786.666 466.551 786.49L460.172 786.181C459.097 786.148 458.026 786.008 456.979 785.762C455.857 785.521 454.782 785.1 453.794 784.516Z" fill="#F3AB98"/>
<path d="M544.854 699.292L509.632 670.543L572.026 624.714H437.674L500.067 670.543L464.846 699.292L433.386 652.032V717.677H579.074V647.884L544.854 699.292Z" fill="#F3AB98"/>
<path d="M602.382 624.163L566.658 624.247C566.473 628.024 566.074 631.788 565.462 635.521C565.07 637.313 564.584 639.083 564.008 640.825C562.052 646.253 549.578 650.862 546.041 654.818C544.87 656.135 543.613 657.372 542.279 658.524C521.236 673.747 487.795 674.583 467.471 658.039C465.279 656.124 463.287 653.991 461.527 651.673C457.99 647.022 447.815 641.979 446.395 635.831C445.992 634.012 445.69 632.172 445.491 630.319C445.289 628.43 445.189 626.531 445.19 624.631L407.393 624.163C404.45 624.163 401.627 625.332 399.546 627.413C397.463 629.495 396.293 632.318 396.291 635.263V873.386C396.293 876.332 397.463 879.153 399.546 881.24C401.627 883.32 404.45 884.488 407.393 884.488H607.147C610.09 884.488 612.911 883.32 614.992 881.233C617.073 879.153 618.241 876.332 618.241 873.386V640.758C618.241 630.57 613.326 624.163 602.382 624.163Z" fill="white"/>
<path d="M599.188 624.163C652.31 624.163 673.194 660.456 665.151 851.673C649.484 857.276 618.409 855.512 618.409 855.512L599.188 624.163Z" fill="white"/>
<path d="M463.935 705.498L504.441 685.348L545.055 705.498L514.071 669.514L477.378 670.209L463.935 705.498Z" fill="#E2E2E2"/>
<path d="M618.241 685.348C618.241 685.348 599.188 756.061 602.097 881.076L629.862 855.144L632.856 740.068C628.157 679.653 618.241 685.348 618.241 685.348Z" fill="#E2E2E2"/>
<path d="M412.05 624.163C360.4 624.163 337.743 671.38 344.54 829.495C363.284 837.782 391.517 834.16 391.517 834.16L412.05 624.163Z" fill="white"/>
<path d="M343.445 790.89C343.59 802.296 343.926 814.422 344.456 827.257C357.223 827.867 380.983 827.992 392.202 827.257L395.697 791.45C386.693 790.396 357.424 790.053 343.445 790.89Z" fill="#E2E2E2"/>
<path d="M396.266 685.348L395.847 833.976L384.687 834.731C382.203 710.057 396.266 685.348 396.266 685.348Z" fill="#E2E2E2"/>
<path d="M582.192 628.747L519.765 674.592L554.996 703.348L604.672 628.705L582.192 628.747Z" fill="#E2E2E2"/>
<path d="M599.188 624.163C655.554 624.163 664.775 671.238 665.151 736.062V851.673C665.151 851.673 623.35 856.299 618.409 855.512L618.325 736.647" stroke="#592D3D" stroke-width="11.8" stroke-miterlimit="10" stroke-linecap="square"/>
<path d="M412.05 624.163C390.539 624.163 375.665 630.955 365.475 642.932C349.213 662.062 344.883 694.406 344.573 733.493V837.021C354.656 839.797 395.873 833.976 395.873 833.976L396.283 734.773" stroke="#592D3D" stroke-width="11.8" stroke-miterlimit="10" stroke-linecap="square"/>
<path d="M407.393 884.488H504.85C413.563 884.488 420.485 691.153 396.257 691.153V873.385C396.259 874.849 396.547 876.292 397.108 877.644C397.669 878.996 398.49 880.216 399.524 881.247C400.558 882.276 401.786 883.097 403.136 883.655C404.486 884.206 405.934 884.494 407.393 884.488Z" fill="#E2E2E2"/>
<path d="M391.274 709.588C391.115 706.519 391.182 703.441 391.325 700.387C391.467 697.334 391.718 694.248 392.036 691.187C392.202 689.656 392.378 688.117 392.579 686.578C392.78 685.039 392.988 683.508 393.289 681.978C393.881 678.792 394.891 675.698 396.291 672.777C397.691 675.698 398.7 678.792 399.292 681.978C399.593 683.508 399.81 685.047 400.003 686.578C400.195 688.108 400.379 689.656 400.546 691.187C400.87 694.265 401.109 697.332 401.265 700.387C401.399 703.458 401.466 706.536 401.265 709.588H391.274Z" fill="#592D3D"/>
<path d="M618.241 717.208V723.899C618.459 752.339 618.459 781.614 618.241 809.849C618.241 812.25 618.241 814.639 618.241 816.988V873.373C618.241 876.313 617.072 879.141 614.992 881.22C612.911 883.3 610.09 884.468 607.147 884.468H407.393C404.45 884.468 401.627 883.3 399.546 881.22C397.463 879.141 396.293 876.319 396.291 873.373V818.334C396.073 789.175 396.073 759.901 396.291 730.257V709.588" stroke="#592D3D" stroke-width="11.8" stroke-miterlimit="10"/>
<path d="M669.9 801.555C671.756 803.445 671.229 833.668 669.9 835.846C668.571 838.031 616.394 837.454 615.75 835.846C615.106 834.245 614.162 804.481 615.75 801.555C615.976 801.135 617.656 800.807 620.307 800.564" fill="white"/>
<path d="M613.226 717.208C613.067 713.712 613.142 710.216 613.276 706.727C613.409 703.24 613.668 699.735 613.995 696.247C614.162 694.499 614.328 692.751 614.529 691.002C614.73 689.254 614.939 687.506 615.249 685.758C615.826 682.158 616.831 678.64 618.241 675.278C619.659 678.637 620.666 682.157 621.243 685.758C621.544 687.506 621.77 689.254 621.953 691.002C622.138 692.751 622.33 694.499 622.497 696.247C622.822 699.735 623.074 703.232 623.207 706.727C623.341 710.224 623.425 713.712 623.257 717.208H613.226Z" fill="#592D3D"/>
<path d="M407.393 624.247L602.382 624.163" stroke="#592D3D" stroke-width="11.8" stroke-miterlimit="10"/>
<path d="M529.421 688.895L510.735 670.209L492.059 688.895L501.238 698.079L493.112 787.269L510.451 800.794L528.359 787.269L520.241 698.079L529.421 688.895Z" fill="#E2E2E2"/>
<path d="M504.884 670.209V884.489" stroke="#592D3D" stroke-width="6" stroke-miterlimit="10" stroke-linecap="square"/>
<path d="M504.883 670.209L523.569 683.04L504.883 701.734L486.206 683.04L504.883 670.209Z" fill="#633749"/>
<path d="M437.65 624.698C437.65 624.698 473.825 657.604 500.067 670.544C487.293 691.63 464.846 699.308 464.846 699.308L415.16 624.674L437.65 624.698Z" fill="white" stroke="#592D3D" stroke-width="11.8" stroke-miterlimit="10"/>
<path d="M572.05 624.698C572.05 624.698 539.127 659.159 509.632 670.543C517.993 687.506 544.854 699.292 544.854 699.292L594.541 624.656L572.05 624.698Z" fill="white" stroke="#592D3D" stroke-width="11.8" stroke-miterlimit="10"/>
<path d="M504.825 793.233C510.578 793.233 515.242 788.567 515.242 782.811C515.242 777.054 510.578 772.388 504.825 772.388C499.072 772.388 494.408 777.054 494.408 782.811C494.408 788.567 499.072 793.233 504.825 793.233Z" fill="black" stroke="white" stroke-width="24"/>
<path d="M504.825 793.233C510.578 793.233 515.242 788.567 515.242 782.811C515.242 777.054 510.578 772.388 504.825 772.388C499.072 772.388 494.408 777.054 494.408 782.811C494.408 788.567 499.072 793.233 504.825 793.233Z" fill="#5683FF"/>
<path d="M544.764 771.738H488.212L475.016 795.008L489.904 812.117H514.819L524.695 795.008L498.014 795.036L502.701 787.704H554.036C558.119 780.585 552.976 771.738 544.764 771.738Z" fill="url(#paint0_linear_1_74)"/>
<path d="M469.892 789.154L479.182 773.188L483.18 766.31H483.227C483.404 765.493 483.488 764.638 483.488 763.773C483.488 758.281 479.889 753.607 474.839 751.832H474.802L462.117 773.717L461.55 774.693C457.829 781.114 462.46 789.154 469.892 789.154Z" fill="url(#paint1_linear_1_74)"/>
<path d="M474.849 751.832C479.898 753.616 483.497 758.291 483.497 763.773C483.497 764.647 483.404 765.493 483.236 766.31H533.521L524.695 751.832H474.849Z" fill="url(#paint2_linear_1_74)"/>
<path opacity="0.35" d="M476.318 751.832H474.849C479.898 753.616 483.497 758.291 483.497 763.773C483.497 764.647 483.404 765.493 483.236 766.31H484.697C484.874 765.493 484.957 764.638 484.957 763.773C484.966 758.291 481.358 753.616 476.318 751.832Z" fill="#5683FF"/>
<path d="M532.348 794.897L522.705 811.457L518.557 818.585H518.501C518.324 819.44 518.232 820.313 518.232 821.215C518.232 826.911 521.97 831.763 527.206 833.612H527.243L540.421 810.909L549.702 794.897H532.348Z" fill="url(#paint3_linear_1_74)"/>
<path d="M487.259 781.414L504.599 794.938L522.508 781.414L514.146 689.589H495.62L487.259 781.414Z" fill="#633749"/>
<path d="M486.206 683.04L495.386 692.224L487.259 781.414L504.599 794.938L522.508 781.414L514.389 692.224L523.569 683.04" stroke="#592D3D" stroke-width="8" stroke-miterlimit="10"/>
<path d="M497.234 689.43C497.192 689.38 497.234 689.43 497.234 689.43L497.292 689.471C497.343 689.499 497.391 689.533 497.435 689.572L497.752 689.815C497.961 689.991 498.187 690.166 498.404 690.359C498.847 690.735 499.316 691.137 499.826 691.521C500.335 691.906 500.887 692.274 501.498 692.709C502.294 693.309 503.051 693.959 503.763 694.658C503.167 695.631 502.237 696.354 501.146 696.691C500.14 696.971 499.089 697.048 498.053 696.916C497 696.814 495.975 696.531 495.018 696.08C494.531 695.847 494.07 695.567 493.639 695.244C493.415 695.08 493.2 694.904 492.995 694.717C492.894 694.624 492.786 694.524 492.686 694.416L492.518 694.239L492.31 693.998L497.234 689.43Z" fill="#592D3D"/>
<path d="M334.708 468.962V458.146C333.403 451.065 333.962 443.767 336.331 436.968C337.111 434.749 338.093 432.608 339.265 430.569C342.066 423.283 349.59 417.429 357.114 414.919C368.819 411.574 383.031 413.246 392.228 422.448C403.932 434.994 402.26 453.396 402.636 468.97" stroke="#592D3D" stroke-width="12" stroke-miterlimit="10" stroke-linecap="round"/>
<path d="M607.941 469.288C605.985 447.022 609.329 416.074 638.148 413.105C640.406 412.9 642.678 412.9 644.936 413.105C651.738 413.695 658.237 416.181 663.696 420.281C678.745 432.827 675.402 452.902 675.359 469.321" stroke="#592D3D" stroke-width="12" stroke-miterlimit="10" stroke-linecap="round"/>
<path d="M457.313 510.157C457.313 494.348 552.387 496.724 552.387 510.157C552.387 522.77 547.379 534.867 538.464 543.786C529.549 552.705 517.457 557.716 504.85 557.716C492.242 557.716 480.151 552.705 471.236 543.786C462.321 534.867 457.313 522.77 457.313 510.157Z" fill="#592D3D"/>
<path d="M500.67 527.839C486.499 527.002 474.143 533.485 470.029 543.078C476.869 550.307 485.802 555.207 495.573 557.088C505.343 558.968 515.456 557.734 524.488 553.559C526.367 552.691 528.185 551.7 529.931 550.59C529.163 538.788 516.605 528.825 500.67 527.839Z" fill="#F28195"/>
<path d="M457.313 510.157C457.313 494.348 552.387 496.724 552.387 510.157C552.387 522.77 547.379 534.867 538.464 543.786C529.549 552.705 517.457 557.716 504.85 557.716C492.242 557.716 480.151 552.705 471.236 543.786C462.321 534.867 457.313 522.77 457.313 510.157Z" stroke="#592D3D" stroke-width="6" stroke-miterlimit="10"/>
<path d="M486.558 519.023C486.934 518.93 487.084 518.889 487.327 518.846L487.953 518.73C488.364 518.655 488.79 518.612 489.175 518.579C489.977 518.497 490.784 518.469 491.59 518.495C493.225 518.531 494.85 518.759 496.431 519.173C499.743 520.013 502.746 521.783 505.084 524.275C507.284 526.642 508.758 529.592 509.332 532.774C509.854 535.708 509.457 538.732 508.194 541.431C506.464 538.979 505.135 536.78 503.746 534.939C503.122 534.058 502.437 533.219 501.699 532.43C501.023 531.737 500.264 531.131 499.441 530.624C497.88 529.688 496.139 529.093 494.333 528.876C493.384 528.753 492.43 528.686 491.473 528.675C490.981 528.675 490.487 528.675 490.002 528.717L489.292 528.767H488.965C488.882 528.767 488.715 528.767 488.773 528.767L486.558 519.023Z" fill="#592D3D"/>
<path d="M553.951 324.032C543.199 344.107 503.788 355.349 500.586 350.313C496.999 344.684 532.231 304.041 512.207 261.533" fill="#F3AB98"/>
<path d="M742.284 276.782C738.021 272.516 716.317 278.313 694.471 276.589C673.066 247.505 645.249 223.748 613.18 207.161C581.11 190.575 545.652 181.606 509.557 180.951C507.517 163.82 508.929 149.434 507.375 147.41C505.293 144.716 494.424 158.016 491.599 173.339C481.642 160.792 464.729 154.101 464.243 157.614C463.926 159.856 470.464 169.4 476.626 182.623C383.324 193.891 306.844 259.793 280.09 347.402C268.503 357.373 257.634 364.415 257.517 368.89C257.291 377.188 290.382 376.719 304.82 375.432V375.381C355.525 373.708 454.47 363.855 502.475 314.413C497.861 330.381 489.358 342.149 490.997 344.658C493.506 348.565 523.033 340.318 532.857 325.22C572.987 341.606 649.476 361.32 715.949 311.703L715.765 311.344C727.879 301.215 747.593 282.135 742.284 276.782Z" fill="#A56941"/>
<path d="M694.504 281.608C689.99 281.808 685.592 281.7 681.128 281.491C676.664 281.282 672.274 280.93 667.86 280.437C665.653 280.194 663.446 279.936 661.247 279.601C659.048 279.266 656.841 278.998 654.651 278.572C650.188 277.768 645.821 276.496 641.625 274.774C646.011 273.65 650.487 272.918 655.002 272.583C657.201 272.398 659.4 272.273 661.598 272.181L668.186 271.896C672.576 271.713 676.957 271.612 681.329 271.521C685.702 271.429 690.09 271.42 694.388 271.521L694.504 281.608Z" fill="#592D3D"/>
<path d="M284.638 349.678C284.638 349.678 284.638 349.878 284.638 350.003L284.537 350.447L284.304 351.375C284.129 352.003 283.945 352.646 283.752 353.291C283.359 354.587 282.916 355.917 282.464 357.264C282.013 358.61 281.578 360.007 280.984 361.446C280.653 362.198 280.267 362.924 279.831 363.621C279.33 364.447 278.751 365.223 278.1 365.938C276.691 364.703 275.62 363.128 274.991 361.363C274.704 360.575 274.491 359.764 274.356 358.937C274.179 358.1 274.096 357.264 273.996 356.469C273.828 354.801 273.828 353.119 273.996 351.45C274.077 350.606 274.211 349.768 274.396 348.941C274.497 348.523 274.606 348.104 274.74 347.678C274.803 347.46 274.879 347.245 274.965 347.035C275.049 346.8 275.116 346.633 275.266 346.281L284.638 349.678Z" fill="#592D3D"/>
<path d="M304.82 375.456V375.406C319.032 374.938 337.116 373.818 356.771 371.358C358.97 324.584 375.164 269.664 411.883 205.375L406.197 202.656C376.21 216.596 349.485 236.689 327.76 261.629C306.035 286.569 289.794 315.801 280.09 347.427C268.503 357.398 257.634 364.441 257.517 368.916C257.291 377.213 290.382 376.745 304.82 375.456Z" fill="#8D5638"/>
<path d="M742.284 276.782C738.021 272.516 716.317 278.313 694.471 276.589C673.066 247.505 645.249 223.748 613.18 207.161C581.11 190.575 545.652 181.606 509.557 180.951C507.517 163.82 508.929 149.434 507.375 147.41C505.293 144.716 494.424 158.016 491.599 173.339C481.642 160.792 464.729 154.101 464.243 157.614C463.926 159.856 470.464 169.4 476.626 182.623C383.324 193.891 306.844 259.793 280.09 347.402C268.503 357.373 257.634 364.415 257.517 368.89C257.291 377.188 290.382 376.719 304.82 375.432V375.381C355.525 373.708 454.47 363.855 502.475 314.413C497.861 330.381 489.358 342.149 490.997 344.658C493.506 348.565 523.033 340.318 532.857 325.22C572.987 341.606 649.476 361.32 715.949 311.703L715.765 311.344C727.879 301.215 747.593 282.135 742.284 276.782Z" stroke="#592D3D" stroke-width="11.8" stroke-miterlimit="10"/>
<path d="M509.808 194.359C497.899 195.045 486.041 196.425 474.293 198.491C471.384 199.052 468.483 199.671 465.564 200.206C462.647 200.741 459.796 201.552 456.912 202.221L448.334 204.497C445.491 205.333 442.674 206.237 439.849 207.106C428.576 210.743 417.562 215.139 406.883 220.263C396.153 225.475 385.752 231.341 375.741 237.828C384.658 229.692 394.502 222.633 405.069 216.801C415.645 210.892 426.779 206.048 438.31 202.338C441.22 201.502 444.112 200.59 447.021 199.788C449.931 198.984 452.873 198.265 455.841 197.613C458.81 196.961 461.778 196.442 464.754 195.94C467.73 195.438 470.731 195.045 473.725 194.669C485.701 193.195 497.807 193.09 509.808 194.359Z" fill="white"/>
<path d="M427.341 387.184H326.482C321.834 387.184 317.186 387.117 312.537 387.184H312.336C307.963 387.184 303.776 391.031 303.976 395.548C304.012 397.754 304.905 399.861 306.465 401.422C308.024 402.982 310.13 403.875 312.336 403.912H413.196C417.836 403.912 422.492 403.979 427.14 403.912H427.341C431.713 403.912 435.902 400.064 435.701 395.548C435.663 393.342 434.77 391.236 433.21 389.676C431.65 388.116 429.546 387.222 427.341 387.184Z" fill="#592D3D"/>
<path d="M694.061 387.184H593.202C588.554 387.184 583.906 387.117 579.258 387.184H579.057C574.684 387.184 570.496 391.031 570.696 395.548C570.733 397.754 571.625 399.861 573.185 401.422C574.745 402.982 576.85 403.875 579.057 403.912H679.916C684.564 403.912 689.212 403.979 693.86 403.912H694.061C698.434 403.912 702.622 400.064 702.422 395.548C702.384 393.342 701.49 391.236 699.93 389.676C698.371 388.116 696.267 387.222 694.061 387.184Z" fill="#592D3D"/>
</g>
</g>
<defs>
<linearGradient id="paint0_linear_1_74" x1="531.223" y1="762.249" x2="499.318" y2="817.548" gradientUnits="userSpaceOnUse">
<stop stop-color="#5683FF"/>
<stop offset="1" stop-color="#5683FF"/>
</linearGradient>
<linearGradient id="paint1_linear_1_74" x1="464.181" y1="757.967" x2="479.107" y2="783.836" gradientUnits="userSpaceOnUse">
<stop offset="0.3" stop-color="#5683FF"/>
<stop offset="1" stop-color="#5683FF"/>
</linearGradient>
<linearGradient id="paint2_linear_1_74" x1="513.798" y1="742.433" x2="495.827" y2="773.581" gradientUnits="userSpaceOnUse">
<stop offset="0.5" stop-color="#5683FF"/>
<stop offset="1" stop-color="#5683FF"/>
</linearGradient>
<linearGradient id="paint3_linear_1_74" x1="542.617" y1="824.741" x2="527.131" y2="797.901" gradientUnits="userSpaceOnUse">
<stop offset="0.3" stop-color="#5683FF"/>
<stop offset="1" stop-color="#5683FF"/>
</linearGradient>
<clipPath id="clip0_1_74">
<rect width="1000" height="1000" rx="200" fill="white"/>
</clipPath>
</defs>
</svg>
