<?xml version="1.0" standalone="no"?>
<!DOCTYPE svg PUBLIC "-//W3C//DTD SVG 20010904//EN" "http://www.w3.org/TR/2001/REC-SVG-20010904/DTD/svg10.dtd">
<svg version="1.0" xmlns="http://www.w3.org/2000/svg" width="1000.000000pt" height="1000.000000pt" viewBox="0 0 1000.000000 1000.000000" preserveAspectRatio="xMidYMid meet">
	<metadata>
		Created by potrace 1.14, written by Peter Selinger 2001-2017
	</metadata>
	<g transform="translate(0.000000,1000.000000) scale(0.100000,-0.100000)" fill="#000000" stroke="none">
		<path d="M5000 9104 c-29 -28 -64 -76 -90 -124 l-41 -79 -67 46 c-122 84 -218
      107 -262 63 -31 -31 -24 -65 35 -178 31 -57 54 -106 52 -109 -3 -2 -58 -15
      -124 -28 -851 -173 -1575 -723 -1969 -1497 -62 -122 -138 -305 -165 -395 -8
      -29 -25 -52 -53 -74 -239 -189 -278 -253 -196 -329 34 -32 85 -48 186 -60 41
      -4 77 -10 78 -11 2 -2 -1 -44 -6 -94 -13 -119 -3 -474 16 -603 95 -636 401
      -1207 871 -1624 239 -213 513 -353 915 -470 41 -12 27 -13 -180 -19 -254 -7
      -295 -15 -430 -81 -67 -32 -102 -59 -166 -123 -71 -71 -90 -97 -138 -196 -64
      -131 -104 -274 -132 -469 -13 -98 -18 -221 -21 -572 l-5 -447 34 -14 c19 -8
      44 -18 56 -21 l22 -7 0 263 c1 784 50 1091 215 1324 95 133 244 208 452 228
      l72 7 301 -451 c273 -410 303 -450 323 -444 45 14 195 94 238 127 40 30 48 33
      64 21 18 -13 17 -24 -9 -316 -15 -167 -29 -322 -32 -346 l-6 -42 -67 0 -67 0
      -84 -147 c-98 -170 -105 -203 -55 -252 59 -58 69 -51 154 93 42 71 82 132 90
      134 12 4 13 -9 8 -75 -6 -72 -11 -88 -57 -167 -27 -48 -50 -90 -50 -92 0 -3
      37 -48 81 -99 l82 -95 121 0 c189 0 183 -2 236 92 25 44 46 84 48 89 2 4 -32
      9 -75 11 l-78 3 56 43 56 42 200 0 c200 0 201 0 207 22 9 36 7 58 -9 92 -26
      54 -46 61 -200 66 l-140 5 -3 33 -3 32 50 0 51 0 -47 78 c-25 42 -51 82 -58
      87 -8 7 -23 131 -43 350 -38 413 -41 400 76 324 98 -64 217 -123 231 -114 7 3
      145 206 308 451 l296 443 76 -5 c351 -27 530 -211 610 -627 33 -173 43 -327
      50 -743 l6 -402 53 22 54 21 -5 445 c-5 486 -12 570 -67 786 -19 75 -48 156
      -81 223 -45 92 -63 118 -138 192 -67 67 -103 94 -161 122 -126 60 -182 70
      -410 76 l-205 6 85 23 c47 13 135 43 195 67 232 90 391 185 580 347 499 428
      813 992 921 1655 24 151 30 526 10 695 -27 233 -84 469 -161 663 l-35 90 27
      20 c60 42 283 274 322 334 33 52 41 73 41 112 0 40 -4 51 -30 73 -41 34 -97
      40 -245 27 -69 -6 -169 -11 -223 -11 l-98 0 -75 92 c-160 199 -402 418 -617
      560 -430 283 -846 423 -1404 474 l-68 6 -1 86 c0 48 -4 129 -7 180 -6 82 -10
      96 -31 113 -37 30 -67 24 -121 -27z m99 -568 c-3 -3 -54 -10 -114 -16 -519
      -51 -946 -194 -1410 -474 -68 -41 64 68 165 136 249 168 576 293 895 342 81
      13 475 22 464 12z m2373 -1650 c275 -750 174 -1610 -266 -2281 -194 -296 -505
      -603 -764 -754 -226 -132 -523 -223 -867 -267 -175 -23 -703 -26 -925 -6 -386
      35 -842 184 -1103 361 -460 310 -835 863 -980 1446 -59 235 -72 348 -72 625 0
      135 3 261 8 281 l7 36 243 12 c614 30 1119 118 1537 268 154 55 397 173 507
      246 l82 54 -16 -36 c-43 -100 -42 -141 7 -166 87 -45 327 32 478 155 l63 51
      122 -41 c156 -52 330 -95 482 -121 154 -26 469 -36 615 -20 263 30 556 125
      755 243 47 29 44 32 87 -86z m-3106 -3592 c156 -131 330 -261 452 -338 50 -32
      92 -62 92 -66 0 -4 -35 -41 -78 -81 -74 -70 -191 -149 -219 -149 -13 0 -75 89
      -346 503 l-156 237 64 0 64 0 127 -106z m1267 45 c-166 -148 -385 -297 -521
      -354 l-63 -26 -89 51 c-48 28 -135 84 -193 124 -99 69 -337 255 -337 262 0 2
      286 4 635 4 l636 0 -68 -61z m361 49 c-34 -56 -485 -728 -490 -728 -29 0 -196
      116 -257 178 l-49 49 84 48 c164 94 302 198 488 368 l105 96 63 1 c48 0 61 -3
      56 -12z" />
		<path d="M2727 6240 c-51 -41 -52 -119 -1 -159 26 -21 35 -21 730 -21 524 0
      710 3 729 12 31 14 55 56 55 95 0 31 -24 65 -57 82 -15 8 -227 11 -726 11
      -688 0 -705 0 -730 -20z" />
		<path d="M5864 6226 c-44 -44 -45 -83 -5 -128 l29 -33 709 -2 c556 -2 713 0
      733 10 14 7 34 28 44 48 19 35 19 36 0 75 -10 21 -30 44 -44 51 -19 10 -188
      13 -728 13 l-704 0 -34 -34z" />
		<path d="M6595 6010 c-152 -25 -259 -107 -324 -251 -44 -96 -61 -197 -61 -354
      0 -122 2 -137 20 -155 25 -25 62 -26 83 -2 14 15 17 42 17 148 1 250 56 390
      182 460 49 27 60 29 158 29 95 0 111 -3 162 -28 70 -34 121 -93 150 -174 18
      -49 22 -86 26 -238 3 -144 7 -183 20 -197 18 -22 51 -23 78 -4 17 13 19 30 22
      173 5 235 -27 358 -118 457 -95 102 -269 160 -415 136z" />
		<path d="M3310 5994 c-115 -31 -207 -108 -265 -223 -57 -114 -68 -180 -59
      -359 6 -139 9 -154 28 -167 26 -19 47 -19 72 -1 17 13 19 31 24 198 5 183 5
      183 39 256 38 81 88 132 160 166 37 17 65 21 141 21 84 0 102 -3 152 -28 135
      -66 188 -199 188 -475 0 -59 4 -112 8 -118 28 -42 96 -35 108 12 11 43 -4 324
      -20 392 -54 218 -217 343 -446 341 -41 0 -100 -7 -130 -15z" />
		<path d="M4791 4959 c-158 -17 -262 -50 -306 -98 -15 -18 -19 -34 -17 -86 9
      -228 156 -430 377 -516 102 -41 243 -51 345 -25 252 63 425 264 456 528 8 73
      -8 101 -79 133 -136 62 -506 92 -776 64z m199 -398 c14 -10 43 -41 64 -70 47
      -63 61 -56 59 29 -1 58 -1 59 23 50 80 -31 154 -92 185 -151 10 -21 19 -42 19
      -47 0 -22 -154 -78 -241 -87 -124 -13 -287 40 -381 124 -39 34 -46 46 -38 60
      14 28 78 72 139 98 64 27 128 24 171 -6z" />
		<path d="M3755 2839 c-28 -97 -34 -214 -37 -813 l-3 -600 50 -13 c28 -7 53
      -13 56 -13 3 0 9 258 13 573 5 476 4 593 -8 697 -13 107 -39 220 -52 220 -2 0
      -10 -23 -19 -51z" />
		<path d="M6377 2815 c-9 -27 -22 -86 -28 -130 -14 -95 -25 -1223 -12 -1235 4
      -4 32 -1 61 8 l52 15 0 544 c0 555 -6 686 -39 791 l-17 57 -17 -50z" />
		<path d="M5343 1383 c-22 -38 -46 -78 -52 -91 l-13 -24 84 7 c121 9 123 10
      153 62 15 27 36 63 47 81 l20 32 -100 0 -100 0 -39 -67z" />
	</g>
</svg>
